<svg xmlns="http://www.w3.org/2000/svg" version="1.1" xmlns:xlink="http://www.w3.org/1999/xlink" xmlns:svgjs="http://svgjs.com/svgjs" width="1000" height="1000"><rect width="1000" height="1000" rx="200" ry="200" fill="#ffffff"></rect><g transform="matrix(0.8281573498964804,0,0,0.8281573498964804,112.85408677348931,99.96804030069899)"><svg xmlns="http://www.w3.org/2000/svg" version="1.1" xmlns:xlink="http://www.w3.org/1999/xlink" xmlns:svgjs="http://svgjs.com/svgjs" width="935" height="966"><svg version="1.1" id="Calque_1" xmlns="http://www.w3.org/2000/svg" xmlns:xlink="http://www.w3.org/1999/xlink" x="0px" y="0px" viewBox="0 0 935 966" style="enable-background:new 0 0 935 966;" xml:space="preserve">
<style type="text/css">
	.st0{fill:#2B3438;}
	.st1{fill:#990012;}
</style>
<g transform="translate(0.000000,966.000000) scale(0.100000,-0.100000)">
	<path class="st0" d="M4535,9639c-799-53-1602-310-2257-723c-324-203-544-380-829-665c-229-230-326-339-474-537
		C191,6669-137,5320,81,4035c128-760,431-1471,884-2080c268-361,615-710,975-981c645-485,1412-802,2220-918c242-35,341-41,680-41
		c265,1,379,5,493,18c741,88,1387,305,1987,665c605,364,1144,881,1535,1472c148,224,336,573,413,765c11,28,28,67,36,88l16,37h-898
		h-898l-44-62c-71-100-231-287-332-384c-519-506-1157-804-1872-875c-181-18-565-7-741,21c-282,45-560,129-817,246
		c-117,54-274,137-327,174c-14,9-62,41-106,70c-144,96-276,203-413,335c-439,424-735,932-883,1520c-61,240-88,434-96,700
		c-18,601,129,1192,425,1705c248,432,616,818,1038,1092c79,51,279,159,349,189c38,16,77,34,87,39c16,9,119,49,228,88
		c146,53,413,114,599,136c788,97,1575-112,2207-585c327-245,621-568,811-891l22-38h842c669,0,840,3,836,13c-3,6-22,53-42,102
		c-91,224-238,510-373,727c-287,460-672,889-1117,1242c-206,164-561,388-813,515C6246,9514,5361,9694,4535,9639z"></path>
	<path class="st1" d="M4875,6453c-225-28-468-112-653-227c-567-352-871-1032-757-1691c61-353,213-645,464-895c75-74,164-151,218-188
		c446-303,990-366,1488-171c384,149,719,475,887,862c158,365,181,801,62,1180c-58,183-137,335-257,496c-306,408-780,645-1283,640
		C4967,6458,4892,6455,4875,6453z"></path>
</g>
</svg></svg></g></svg>