<svg id="Calque_1" data-name="Calque 1" xmlns="http://www.w3.org/2000/svg" viewBox="0 0 597.59 255"><defs><style>.cls-1,.cls-3{fill:#2b3438;}.cls-2{fill:#990012;}.cls-3{font-size:112px;font-family:Barlow-SemiBoldItalic, Barlow;font-weight:600;font-style:italic;}.cls-4{letter-spacing:-0.01em;}</style></defs><path class="cls-1" d="M206.06,73.36a130,130,0,0,0-59.74,19.13,113.36,113.36,0,0,0-21.95,17.61,112.8,112.8,0,0,0-12.54,14.21,127.58,127.58,0,0,0-.27,152.44,132.29,132.29,0,0,0,25.81,26A128.29,128.29,0,0,0,196.13,327c6.41.93,9,1.09,18,1.09a115.49,115.49,0,0,0,13.05-.48c19.61-2.33,36.71-8.07,52.6-17.6a129.49,129.49,0,0,0,40.63-39,142,142,0,0,0,10.93-20.25c.29-.74.74-1.78,1-2.33l.42-1H285.18L284,249.14a90.69,90.69,0,0,1-8.79,10.16,81.29,81.29,0,0,1-49.55,23.17,106,106,0,0,1-19.61-.56,84.61,84.61,0,0,1-21.63-6.51,79.23,79.23,0,0,1-8.65-4.61L173,268.94A77,77,0,0,1,162,260.07a83.22,83.22,0,0,1-23.37-40.23,78.47,78.47,0,0,1-2.54-18.53,85.11,85.11,0,0,1,11.25-45.13,86.38,86.38,0,0,1,27.47-28.91,102,102,0,0,1,9.24-5c1-.42,2-.9,2.3-1,.42-.24,3.15-1.3,6-2.33a85.19,85.19,0,0,1,15.85-3.6A80.76,80.76,0,0,1,266.7,130.8a83.86,83.86,0,0,1,21.47,23.58l.58,1H311c17.7,0,22.23-.08,22.12-.35s-.58-1.4-1.11-2.7a139.5,139.5,0,0,0-9.87-19.24,131.27,131.27,0,0,0-29.57-32.88,146.32,146.32,0,0,0-21.52-13.63A129,129,0,0,0,206.06,73.36Z" transform="translate(-86.42 -73.1)"/><path class="cls-2" d="M215.06,157.69a43.27,43.27,0,0,0-37.32,50.77A42.52,42.52,0,0,0,190,232.15a49.93,49.93,0,0,0,5.77,5,42,42,0,0,0,39.38,4.53,43.55,43.55,0,0,0,23.48-22.82,45.74,45.74,0,0,0,1.64-31.23,42.4,42.4,0,0,0-6.8-13.13,41.91,41.91,0,0,0-34-16.94C217.49,157.56,215.51,157.64,215.06,157.69Z" transform="translate(-86.42 -73.1)"/><text class="cls-3" transform="translate(193.05 155.7)">a<tspan class="cls-4" x="60.48" y="0">r</tspan><tspan x="100.24" y="0">entica</tspan></text></svg>